<?xml version="1.0" encoding="UTF-8"?>
<svg width="108px" height="18px" viewBox="0 0 108 18" version="1.1" xmlns="http://www.w3.org/2000/svg" xmlns:xlink="http://www.w3.org/1999/xlink">
    <!-- Generator: Sketch 61 (89581) - https://sketch.com -->
    <title>alibaba-ir-app</title>
    <desc>Created with Sketch.</desc>
    <g id="Page-1" stroke="none" stroke-width="1" fill="none" fill-rule="evenodd">
        <g id="alibaba-ir-app" fill="#FFFFFF">
            <path d="M7.44959605,4.60810437 C8.56298617,5.1246614 9.12706331,6.00696556 9.12576059,7.25966057 C9.12358939,9.36547073 9.12510923,11.4710598 9.12510923,13.5766488 C9.12532635,14.1865222 9.37913935,14.4211399 9.98208092,14.3651943 C10.1564281,14.3490519 10.3301239,14.3229587 10.5357363,14.2975289 C10.5357363,14.7424402 10.5381246,15.1705456 10.5309597,15.59843 C10.5305254,15.6349162 10.4727716,15.6884294 10.4306503,15.7039085 C9.80122016,15.934767 9.16115111,15.9635137 8.51977934,15.7689203 C7.94506334,15.5944497 7.61482419,15.1860247 7.49714528,14.5931782 C7.47478194,14.4808447 7.46045204,14.3669633 7.4380887,14.2267676 C7.38880252,14.2652441 7.34385873,14.2920007 7.30998805,14.3289292 C6.44346309,15.2738128 5.39303769,15.8460943 4.11941319,15.9697053 C4.10052377,15.9716955 4.08315419,15.9896069 4.06491613,16 L2.9217806,16 C2.86988897,15.9847421 2.81908295,15.9646194 2.76632285,15.9546686 C1.43212193,15.706562 0.483525703,15.0009398 0.0985723706,13.6257394 C0.0629647301,13.4979269 0.0327850836,13.3685665 -1.42108547e-14,13.2398695 L-1.42108547e-14,12.2047653 C0.0577538559,11.9705899 0.101829167,11.7317707 0.175867005,11.5031234 C0.560820337,10.3105755 1.42039746,9.63900713 2.57612594,9.37188347 C3.34299293,9.19453812 4.13461157,9.12753607 4.91580846,9.01498148 C5.18742528,8.97584167 5.46077906,8.94775831 5.75041682,8.91259882 L5.75041682,10.4463486 C5.47836576,10.4852673 5.19502447,10.5210902 4.91363727,10.5668638 C4.39233272,10.6517773 3.86256051,10.7063962 3.35450028,10.843496 C3.02274128,10.9328321 2.69271925,11.1035436 2.41545732,11.3116258 C1.87895439,11.7145226 1.82923397,12.3166565 1.92563514,12.9307314 C2.06090075,13.7904804 2.5185892,14.2720991 3.39358183,14.3804522 C4.63680957,14.534579 5.75845025,14.2099619 6.68272906,13.3135054 C7.13325256,12.8763337 7.34885248,12.3314722 7.34841824,11.692852 C7.34733264,10.3780198 7.35775439,9.06318757 7.36035983,7.74813423 C7.36253103,6.59715849 6.94652957,6.05848858 5.84638375,5.81060313 C5.22021036,5.66952291 4.58730627,5.65537067 3.95657337,5.78627895 C3.01731329,5.98131461 2.46322367,6.60777268 2.28974498,7.65968268 C2.27693491,7.7364144 2.26260501,7.81314611 2.24740663,7.90027088 L0.555826583,7.90027088 C0.513922469,6.69843551 1.01981151,5.38493007 2.19746908,4.73569573 C2.92720859,4.33346233 3.71687315,4.18243131 4.53432905,4.13754215 C5.53959353,4.08225994 6.52206044,4.17778761 7.44959605,4.60810437 Z M61.7918492,4.61120018 C62.8943833,5.12488253 63.4658425,5.99767815 63.4656254,7.24329703 L63.4656254,13.5609486 L63.4656254,13.5609486 C63.4658425,14.1905025 63.7129248,14.4222456 64.3269395,14.3645309 C64.5012866,14.3481674 64.6747653,14.3218531 64.8636595,14.2981923 L64.8636595,15.6711814 C64.2005758,15.9290176 63.5235964,15.9761181 62.8401034,15.7664879 C62.1694204,15.5608381 61.867624,15.0504727 61.782513,14.3758085 L61.7640578,14.2491017 L61.7640578,14.2491017 C61.7634065,14.2449002 61.753419,14.2422467 61.6976192,14.2106252 C61.5786376,14.3463984 61.4585703,14.5051689 61.3174425,14.6411631 C60.527995,15.4025098 59.5891692,15.8392393 58.5085642,15.962187 C58.4688313,15.9668307 58.4304011,15.9869534 58.3913195,16 L57.2479668,16 C57.0375778,15.9495826 56.8250176,15.9075681 56.6174511,15.8474211 C55.0856712,15.4027309 54.0969078,14.0766212 54.3520235,12.187075 C54.5628468,10.6256841 55.4997185,9.6372381 57.0727512,9.32699431 C57.9084452,9.1622533 58.7612916,9.08574272 59.6065388,8.97053458 C59.7663389,8.94908508 59.9267904,8.93338493 60.1046115,8.91304107 L60.1046115,10.4357344 C59.5922089,10.5073802 59.0752467,10.5639892 58.5641468,10.656421 C58.156613,10.7300569 57.7434341,10.8101056 57.3558754,10.9529548 C56.4411498,11.2897341 56.0802968,11.9624081 56.2446564,12.9331638 C56.3905609,13.7955664 56.8740866,14.295981 57.7586325,14.3881917 C59.012282,14.5193211 60.1382651,14.1900603 61.0488653,13.2624247 C61.4535766,12.8500193 61.6617944,12.3454033 61.6609259,11.7507878 C61.6589719,10.4142849 61.6461618,9.07711869 61.6793811,7.74127923 C61.7112977,6.46182763 61.037358,5.99325557 60.1571545,5.80618055 C59.5227306,5.67151307 58.8824444,5.65227486 58.2460664,5.79224943 C57.3274327,5.99391896 56.789627,6.60534026 56.6146285,7.62518658 C56.5987788,7.7165128 56.5814092,7.80739676 56.5620855,7.91353861 C56.0381756,7.91353861 55.524036,7.91375974 55.0096793,7.91287523 C54.9614787,7.91287523 54.9132781,7.90380894 54.8661631,7.89916524 C54.8492278,6.4532036 55.4803949,5.21244955 56.7438148,4.61938194 C57.4205771,4.30161977 58.1392435,4.17535519 58.8772335,4.13643651 C59.8822809,4.08358671 60.865182,4.17955664 61.7918492,4.61120018 Z M38.7406786,4.53137266 C39.9300606,5.01431809 40.5080334,5.95013544 40.509119,7.25214219 L40.5095533,13.547902 L40.5095533,13.547902 C40.5095533,14.0956382 40.8050533,14.3815579 41.3445959,14.3455138 C41.5832105,14.3298137 41.8207395,14.2957599 42.0749867,14.2681187 L42.0749867,15.6415501 C41.5508596,15.8379125 41.0191333,15.9015977 40.4696032,15.837028 C39.5379423,15.7273481 39.0730889,15.2390956 38.9336981,14.1790038 C38.8666081,14.2424678 38.8114596,14.2893471 38.7626077,14.3417547 C37.9091099,15.2574493 36.8762712,15.80607 35.6363003,15.9349881 C35.6106801,15.9376417 35.5870141,15.9568799 35.5622624,15.9683786 L34.4189098,15.9683786 L33.8746468,15.8342926 C33.7844135,15.8104926 33.6948154,15.7846942 33.6064477,15.7549892 C32.2062423,15.2855326 31.38249,14.0009951 31.4812795,12.502847 C31.563785,11.246614 32.0777074,10.2747526 33.1906633,9.67505114 C33.6757089,9.41389795 34.199836,9.27060645 34.7415498,9.19873957 C35.5175358,9.09547239 36.2943903,9.00127149 37.0712448,8.90419592 C37.1474538,8.89468738 37.2245313,8.89269722 37.3178928,8.88606335 L37.3178928,10.4038919 C36.7987595,10.4755376 36.2741981,10.531041 35.7563675,10.6247996 C35.3349381,10.7008679 34.9074292,10.783349 34.5072775,10.9323899 C33.6285939,11.2594394 33.2859789,11.8887722 33.4090858,12.8429432 C33.5230737,13.7267953 34.0419899,14.2663497 34.9345692,14.3605506 C36.0616379,14.4795179 37.0929567,14.2031069 37.9772855,13.4618829 C38.5400599,12.9899939 38.8368626,12.38786 38.8277436,11.622533 C38.812111,10.3077008 38.8032091,8.99176295 38.8370798,7.67759412 C38.8676937,6.49168003 38.2369608,5.96937365 37.3274461,5.77699154 C36.6995357,5.6440931 36.0677172,5.62551827 35.4367672,5.75310962 C34.5250814,5.93730997 33.9668665,6.54519321 33.7849201,7.54071535 C33.7658136,7.64619382 33.7458385,7.75123003 33.7241266,7.86864946 L32.011703,7.86864946 C32.0110517,7.42661286 32.0779245,6.99983415 32.1997287,6.58123722 C32.4889323,5.58748411 33.0999073,4.86594063 34.051326,4.51058654 C35.608509,3.92923876 37.1882723,3.90137653 38.7406786,4.53137266 Z M45.7152166,0 C45.7080517,0.0851346122 45.6948074,0.170048096 45.6948074,0.255182708 C45.6939389,3.68334347 45.6922019,7.11150423 45.6954587,10.539665 C45.695893,11.2333462 45.7779642,11.9166344 46.0461071,12.5625518 C46.5011901,13.6589087 47.2852096,14.3271602 48.4793683,14.3528111 C49.6770009,14.3786832 50.4838179,13.7438222 50.9692977,12.6552048 C51.2647976,11.9920394 51.3944181,11.2870805 51.4269861,10.5659793 C51.4671533,9.681685 51.4534747,8.79849632 51.2126889,7.93675715 C50.7041944,6.11553983 48.8447808,5.25534855 47.1545035,6.06136326 C47.0222776,6.12438499 46.9004734,6.21040411 46.7532662,6.29775001 C46.7476211,6.22521975 46.7393705,6.16529382 46.7391534,6.10514677 L46.7415498,5.2714582 C46.7408662,5.13254833 46.7387192,4.9936794 46.7337254,4.85488418 C46.7272118,4.67488529 46.7897423,4.55193764 46.9408576,4.49886671 C47.2919403,4.37591907 47.6425887,4.22709934 48.0056129,4.16916358 C49.3934424,3.94781359 50.659902,4.2405882 51.7272627,5.2104594 C52.5338626,5.94350158 53.0050125,6.88573166 53.2249548,7.94914036 C53.6355283,9.93421416 53.4459827,11.8562662 52.4884846,13.6536016 C51.3473032,15.7958981 49.1528738,16.2458953 47.5118826,15.826635 C46.6779256,15.6132456 46.07303,15.0655094 45.5884187,14.3632042 C45.5393496,14.2922218 45.467483,14.2373818 45.4062552,14.1750235 C45.3864973,14.1876278 45.3669565,14.2000111 45.3474157,14.2126154 L45.3474157,15.6780364 L43.5626913,15.6780364 L43.5622571,0.27994914 L43.5622571,0.27994914 C43.5622571,0.18663276 43.5579147,0.0930952513 43.5555264,0 L45.7152166,0 Z M22.6047723,0 C22.6071607,0.0930952513 22.6115031,0.186411631 22.6115031,0.279728011 C22.6117202,3.72911714 22.6067264,7.17850627 22.6154112,10.6276743 C22.6175824,11.5141799 22.7665266,12.3759191 23.2587371,13.1346122 C24.3640938,14.8395157 26.7400353,14.7548234 27.7279302,12.9778318 C28.1851844,12.1556747 28.3306546,11.2516999 28.3601829,10.3253911 C28.3866715,9.49814805 28.3501954,8.67400077 28.1128835,7.87218752 C27.666051,6.36209851 26.5832748,5.73365028 25.1372572,5.80772845 C24.6144328,5.83426392 24.1243935,5.96649898 23.6634483,6.31809387 L23.6634483,5.00149262 C23.6634483,4.57139698 23.6645339,4.55105313 24.0692451,4.39294599 C24.9223087,4.05970479 25.8025122,4.00906628 26.6907491,4.20321742 C28.1945205,4.53159379 29.2464658,5.46055614 29.7972986,6.89015424 C30.7265712,9.30112223 30.5411509,11.6778152 29.2499397,13.9054674 C28.1170088,15.8604677 25.9649177,16.2226768 24.4327036,15.8242026 C23.5989637,15.6072751 22.9947194,15.0604235 22.5088054,14.359445 C22.4588679,14.287357 22.3859156,14.2318536 22.3236023,14.1688319 L22.2671511,14.2046548 L22.2671511,14.2046548 L22.2671511,15.6780364 L20.4874205,15.6780364 L20.4874205,0 L22.6047723,0 Z M81,4.31908895 L81,6.25971585 C80.5570757,6.27961745 80.1048152,6.24666925 79.6736154,6.32937144 C78.4868388,6.55669191 77.6250905,7.55000276 77.4863509,8.78611311 C77.4639876,8.98512908 77.4518289,9.18657748 77.4516118,9.38714136 C77.4492235,11.4418708 77.4500919,13.3599425 77.4500919,15.414893 L77.4500919,15.6780364 L75.5965406,15.6780364 L75.5965406,4.55857151 L77.3445717,4.55857151 L77.3445717,6.42534137 C77.5629942,6.110675 77.7327819,5.84244569 77.9258013,5.59257007 C78.4761999,4.87987175 79.1588244,4.37282326 80.066385,4.25474045 C80.3777348,4.21427387 80.6975522,4.16827906 81,4.31908895 Z M14.0895525,0 L14.0895525,15.6780364 L12.2481598,15.6780364 L12.2481598,0 L14.0895525,0 Z M18.3372835,4.55857151 L18.3372835,15.6780364 L16.2396895,15.6780364 L16.2396895,4.55857151 L18.3372835,4.55857151 Z M73.4464036,4.55857151 L73.4464036,15.6780364 L71.347724,15.6780364 L71.347724,4.55857151 L73.4464036,4.55857151 Z M69.197587,13.4050528 L69.197587,15.6758251 L67.0137965,15.6758251 L67.0137965,13.4050528 L69.197587,13.4050528 Z" id="Alibaba.ir" fill-rule="nonzero"></path>
            <g id="/app" opacity="0.5" transform="translate(81.000000, 6.000000)" font-family="IRANSansWeb" font-size="12" font-weight="normal" line-spacing="10">
                <text>
                    <tspan x="0.066087" y="9">/app</tspan>
                </text>
            </g>
        </g>
    </g>
</svg>
